<svg xmlns="http://www.w3.org/2000/svg" viewBox="0 0 24 24"><defs><style>.a{fill:#f8de40;}.b{fill:#864e20;}.c{fill:#e7c930;}</style></defs><rect class="a" x="1" y="1" width="22" height="22" rx="7.656"/><path class="b" d="M7.055,7.313A1.747,1.747,0,1,0,8.8,9.059,1.747,1.747,0,0,0,7.055,7.313Z"/><path class="b" d="M16.958,7.313A1.747,1.747,0,1,0,18.7,9.059,1.747,1.747,0,0,0,16.958,7.313Z"/><path class="c" d="M23,13.938a14.69,14.69,0,0,1-12.406,6.531c-5.542,0-6.563-1-9.142-2.529A7.66,7.66,0,0,0,8.656,23h6.688A7.656,7.656,0,0,0,23,15.344Z"/><path class="b" d="M15.1,13.157a10.752,10.752,0,0,0-.291-1.243,6.685,6.685,0,0,0-.489-1.22,3.624,3.624,0,0,0-.872-1.109,2.354,2.354,0,0,0-.669-.386,2.217,2.217,0,0,0-1.548,0,2.423,2.423,0,0,0-.67.386,3.636,3.636,0,0,0-.872,1.109,6.728,6.728,0,0,0-.49,1.221,10.575,10.575,0,0,0-.29,1.242,16.869,16.869,0,0,0-.228,2.5c0,.438,0,.874.021,1.31a.133.133,0,0,0,.265.012c.062-.428.128-.853.2-1.276.133-.8.3-1.6.507-2.372a9.171,9.171,0,0,1,.84-2.171,2.8,2.8,0,0,1,.661-.8,1.3,1.3,0,0,1,1.654,0,2.812,2.812,0,0,1,.662.8,9.207,9.207,0,0,1,.841,2.172c.206.773.373,1.568.506,2.372.075.421.14.843.2,1.268a.133.133,0,0,0,.264-.012c.021-.433.025-.867.02-1.3A16.979,16.979,0,0,0,15.1,13.157Z"/></svg>