<svg xmlns="http://www.w3.org/2000/svg" viewBox="0 0 24 24"><defs><style>.a{fill:#f8de40;}.b{fill:#864e20;}.c{fill:#e7c930;}</style></defs><rect class="a" x="1" y="1" width="22" height="22" rx="7.656"/><path class="b" d="M14,11.207a.32.32,0,0,0-.313.327,2.1,2.1,0,0,1-.5,1.33A1.593,1.593,0,0,1,12,13.3a1.6,1.6,0,0,1-1.187-.43,2.088,2.088,0,0,1-.5-1.334.32.32,0,1,0-.64-.012,2.712,2.712,0,0,0,.679,1.791A2.211,2.211,0,0,0,12,13.938a2.211,2.211,0,0,0,1.647-.626,2.718,2.718,0,0,0,.679-1.791A.322.322,0,0,0,14,11.207Z"/><path class="c" d="M23,13.938a14.69,14.69,0,0,1-12.406,6.531c-5.542,0-6.563-1-9.142-2.529A7.66,7.66,0,0,0,8.656,23h6.688A7.656,7.656,0,0,0,23,15.344Z"/><path class="b" d="M9.6,8.833,9.021,8.6c-.35-.144-.7-.283-1.058-.412s-.716-.251-1.08-.362-.731-.212-1.1-.3l-.012,0a.246.246,0,0,0-.186.448l.01.006c.325.2.656.392.991.573q.281.15.564.291a.245.245,0,0,1,0,.439q-.285.141-.564.292c-.335.18-.667.369-.992.573l-.016.01a.246.246,0,0,0,.187.447l.018,0c.374-.088.741-.19,1.105-.3s.723-.234,1.079-.362c.179-.064.355-.134.532-.2l.526-.213.573-.232A.246.246,0,0,0,9.6,8.833Z"/><path class="b" d="M18.81,9.844a.182.182,0,0,1-.331.1,2.026,2.026,0,0,0-.568-.567,1.732,1.732,0,0,0-1.916,0,2.016,2.016,0,0,0-.571.569.182.182,0,0,1-.331-.1,1.632,1.632,0,0,1,.346-1.023,1.927,1.927,0,0,1,3.026,0A1.64,1.64,0,0,1,18.81,9.844Z"/></svg>